<mxfile host="Electron" agent="Mozilla/5.0 (Windows NT 10.0; Win64; x64) AppleWebKit/537.36 (KHTML, like Gecko) draw.io/26.1.1 Chrome/132.0.6834.210 Electron/34.3.3 Safari/537.36" version="26.1.1" pages="5">
  <diagram name="Consulter historique par client" id="Z1v3b1h7kAp6fvXvEcCq">
    <mxGraphModel dx="1418" dy="673" grid="1" gridSize="10" guides="1" tooltips="1" connect="1" arrows="1" fold="1" page="1" pageScale="1" pageWidth="827" pageHeight="1169" math="0" shadow="0">
      <root>
        <mxCell id="0" />
        <mxCell id="1" parent="0" />
        <mxCell id="OjS8FJYNh4oDVluCHlpG-1" value="Client&amp;nbsp; &amp;nbsp; &amp;nbsp; &amp;nbsp; &amp;nbsp; &amp;nbsp; &amp;nbsp; &amp;nbsp; &amp;nbsp; &amp;nbsp; &amp;nbsp; &amp;nbsp; &amp;nbsp; &amp;nbsp; &amp;nbsp; &amp;nbsp; &amp;nbsp; &amp;nbsp; &amp;nbsp; &amp;nbsp; &amp;nbsp; &amp;nbsp; &amp;nbsp; &amp;nbsp; &amp;nbsp; &amp;nbsp; &amp;nbsp; &amp;nbsp; &amp;nbsp; &amp;nbsp; &amp;nbsp; Système" style="swimlane;whiteSpace=wrap;html=1;" vertex="1" parent="1">
          <mxGeometry x="129" y="120" width="570" height="580" as="geometry" />
        </mxCell>
        <mxCell id="zX8p8bEBiwSsIWoPngu0-2" value="" style="ellipse;html=1;shape=startState;fillColor=#000000;strokeColor=#ff0000;" vertex="1" parent="OjS8FJYNh4oDVluCHlpG-1">
          <mxGeometry x="60" y="40" width="30" height="30" as="geometry" />
        </mxCell>
        <mxCell id="zX8p8bEBiwSsIWoPngu0-3" value="" style="edgeStyle=orthogonalEdgeStyle;html=1;verticalAlign=bottom;endArrow=open;endSize=8;strokeColor=#ff0000;rounded=0;" edge="1" source="zX8p8bEBiwSsIWoPngu0-2" parent="OjS8FJYNh4oDVluCHlpG-1">
          <mxGeometry relative="1" as="geometry">
            <mxPoint x="75" y="100" as="targetPoint" />
            <Array as="points">
              <mxPoint x="75" y="95" />
              <mxPoint x="76" y="120" />
            </Array>
          </mxGeometry>
        </mxCell>
        <mxCell id="zX8p8bEBiwSsIWoPngu0-9" value="Se connecter/&lt;div&gt;S&#39;inscrire&lt;/div&gt;" style="rounded=1;whiteSpace=wrap;html=1;arcSize=40;fontColor=#000000;fillColor=#ffffc0;strokeColor=#ff0000;" vertex="1" parent="OjS8FJYNh4oDVluCHlpG-1">
          <mxGeometry x="15" y="100" width="120" height="40" as="geometry" />
        </mxCell>
        <mxCell id="zX8p8bEBiwSsIWoPngu0-10" value="" style="edgeStyle=orthogonalEdgeStyle;html=1;verticalAlign=bottom;endArrow=open;endSize=8;strokeColor=#ff0000;rounded=0;" edge="1" source="zX8p8bEBiwSsIWoPngu0-9" parent="OjS8FJYNh4oDVluCHlpG-1">
          <mxGeometry relative="1" as="geometry">
            <mxPoint x="75" y="200" as="targetPoint" />
          </mxGeometry>
        </mxCell>
        <mxCell id="zX8p8bEBiwSsIWoPngu0-11" value="Accéder à l&#39;historique" style="rounded=1;whiteSpace=wrap;html=1;arcSize=40;fontColor=#000000;fillColor=#ffffc0;strokeColor=#ff0000;" vertex="1" parent="OjS8FJYNh4oDVluCHlpG-1">
          <mxGeometry x="15" y="200" width="120" height="40" as="geometry" />
        </mxCell>
        <mxCell id="zX8p8bEBiwSsIWoPngu0-12" value="" style="edgeStyle=orthogonalEdgeStyle;html=1;verticalAlign=bottom;endArrow=open;endSize=8;strokeColor=#ff0000;rounded=0;" edge="1" source="zX8p8bEBiwSsIWoPngu0-11" parent="OjS8FJYNh4oDVluCHlpG-1">
          <mxGeometry relative="1" as="geometry">
            <mxPoint x="341" y="265" as="targetPoint" />
            <Array as="points">
              <mxPoint x="75" y="265" />
              <mxPoint x="76" y="290" />
            </Array>
          </mxGeometry>
        </mxCell>
        <mxCell id="zX8p8bEBiwSsIWoPngu0-14" value="Récupérer commandes passées" style="rounded=1;whiteSpace=wrap;html=1;arcSize=40;fontColor=#000000;fillColor=#ffffc0;strokeColor=#ff0000;" vertex="1" parent="OjS8FJYNh4oDVluCHlpG-1">
          <mxGeometry x="341" y="240" width="120" height="40" as="geometry" />
        </mxCell>
        <mxCell id="zX8p8bEBiwSsIWoPngu0-15" value="" style="edgeStyle=orthogonalEdgeStyle;html=1;verticalAlign=bottom;endArrow=open;endSize=8;strokeColor=#ff0000;rounded=0;" edge="1" source="zX8p8bEBiwSsIWoPngu0-14" parent="OjS8FJYNh4oDVluCHlpG-1">
          <mxGeometry relative="1" as="geometry">
            <mxPoint x="401" y="340" as="targetPoint" />
          </mxGeometry>
        </mxCell>
        <mxCell id="zX8p8bEBiwSsIWoPngu0-16" value="Afficher détails de chaque commande" style="rounded=1;whiteSpace=wrap;html=1;arcSize=40;fontColor=#000000;fillColor=#ffffc0;strokeColor=#ff0000;" vertex="1" parent="OjS8FJYNh4oDVluCHlpG-1">
          <mxGeometry x="341" y="340" width="120" height="40" as="geometry" />
        </mxCell>
        <mxCell id="zX8p8bEBiwSsIWoPngu0-17" value="" style="edgeStyle=orthogonalEdgeStyle;html=1;verticalAlign=bottom;endArrow=open;endSize=8;strokeColor=#ff0000;rounded=0;entryX=0.5;entryY=0;entryDx=0;entryDy=0;" edge="1" source="zX8p8bEBiwSsIWoPngu0-16" parent="OjS8FJYNh4oDVluCHlpG-1" target="zX8p8bEBiwSsIWoPngu0-18">
          <mxGeometry relative="1" as="geometry">
            <mxPoint x="401" y="440" as="targetPoint" />
          </mxGeometry>
        </mxCell>
        <mxCell id="zX8p8bEBiwSsIWoPngu0-18" value="" style="ellipse;html=1;shape=endState;fillColor=#000000;strokeColor=#ff0000;" vertex="1" parent="OjS8FJYNh4oDVluCHlpG-1">
          <mxGeometry x="386" y="460" width="30" height="30" as="geometry" />
        </mxCell>
        <mxCell id="YJxjXxoPmjZIEBC-cqvu-1" value="" style="endArrow=none;html=1;rounded=0;" edge="1" parent="OjS8FJYNh4oDVluCHlpG-1">
          <mxGeometry width="50" height="50" relative="1" as="geometry">
            <mxPoint x="271" y="580" as="sourcePoint" />
            <mxPoint x="271" as="targetPoint" />
          </mxGeometry>
        </mxCell>
        <mxCell id="zX8p8bEBiwSsIWoPngu0-1" value="&lt;u&gt;&lt;b&gt;Consultation historique&lt;/b&gt;&lt;/u&gt;" style="text;html=1;align=center;verticalAlign=middle;resizable=0;points=[];autosize=1;strokeColor=none;fillColor=none;" vertex="1" parent="1">
          <mxGeometry x="315" y="50" width="160" height="30" as="geometry" />
        </mxCell>
      </root>
    </mxGraphModel>
  </diagram>
  <diagram id="SfQdlsR5Yu62Ri2Gw-un" name="Envoyer demande à l&#39;administrateur">
    <mxGraphModel dx="1276" dy="606" grid="1" gridSize="10" guides="1" tooltips="1" connect="1" arrows="1" fold="1" page="1" pageScale="1" pageWidth="827" pageHeight="1169" math="0" shadow="0">
      <root>
        <mxCell id="0" />
        <mxCell id="1" parent="0" />
        <mxCell id="TTJAo-frcvp1wLLPHWIe-1" value="&amp;nbsp; &amp;nbsp; &amp;nbsp; &amp;nbsp; &amp;nbsp; &amp;nbsp; &amp;nbsp; &amp;nbsp; &amp;nbsp; &amp;nbsp; &amp;nbsp;client&amp;nbsp; &amp;nbsp; &amp;nbsp; &amp;nbsp; &amp;nbsp; &amp;nbsp; &amp;nbsp; &amp;nbsp; &amp;nbsp; &amp;nbsp; &amp;nbsp;&amp;nbsp;&amp;nbsp; &amp;nbsp; &amp;nbsp; &amp;nbsp; &amp;nbsp; &amp;nbsp; &amp;nbsp; &amp;nbsp; &amp;nbsp; &amp;nbsp; &amp;nbsp; &amp;nbsp; &amp;nbsp; &amp;nbsp; &amp;nbsp; &amp;nbsp; &amp;nbsp; &amp;nbsp; &amp;nbsp; &amp;nbsp; &amp;nbsp; &amp;nbsp; &amp;nbsp; &amp;nbsp; &amp;nbsp; &amp;nbsp; &amp;nbsp; &amp;nbsp; &amp;nbsp; &amp;nbsp;système&amp;nbsp; &amp;nbsp; &amp;nbsp; &amp;nbsp; &amp;nbsp; &amp;nbsp; &amp;nbsp; &amp;nbsp; &amp;nbsp; &amp;nbsp; &amp;nbsp; &amp;nbsp; &amp;nbsp; &amp;nbsp; &amp;nbsp; &amp;nbsp; &amp;nbsp; &amp;nbsp; &amp;nbsp; &amp;nbsp; &amp;nbsp; &amp;nbsp; &amp;nbsp; &amp;nbsp; &amp;nbsp; &amp;nbsp; &amp;nbsp; &amp;nbsp; &amp;nbsp; &amp;nbsp;administrateur" style="swimlane;whiteSpace=wrap;html=1;" vertex="1" parent="1">
          <mxGeometry x="380" y="420" width="760" height="580" as="geometry" />
        </mxCell>
        <mxCell id="oALdavLzcrJTUtkCUUX--1" value="" style="ellipse;html=1;shape=startState;fillColor=#000000;strokeColor=#ff0000;" vertex="1" parent="TTJAo-frcvp1wLLPHWIe-1">
          <mxGeometry x="60" y="30" width="30" height="30" as="geometry" />
        </mxCell>
        <mxCell id="oALdavLzcrJTUtkCUUX--2" value="" style="edgeStyle=orthogonalEdgeStyle;html=1;verticalAlign=bottom;endArrow=open;endSize=8;strokeColor=#ff0000;rounded=0;" edge="1" source="oALdavLzcrJTUtkCUUX--1" parent="TTJAo-frcvp1wLLPHWIe-1">
          <mxGeometry relative="1" as="geometry">
            <mxPoint x="75" y="110" as="targetPoint" />
          </mxGeometry>
        </mxCell>
        <mxCell id="oALdavLzcrJTUtkCUUX--3" value="Se connecter/&lt;div&gt;S&#39;inscrire&lt;/div&gt;" style="rounded=1;whiteSpace=wrap;html=1;arcSize=40;fontColor=#000000;fillColor=#ffffc0;strokeColor=#ff0000;" vertex="1" parent="TTJAo-frcvp1wLLPHWIe-1">
          <mxGeometry x="15" y="110" width="120" height="40" as="geometry" />
        </mxCell>
        <mxCell id="oALdavLzcrJTUtkCUUX--4" value="" style="edgeStyle=orthogonalEdgeStyle;html=1;verticalAlign=bottom;endArrow=open;endSize=8;strokeColor=#ff0000;rounded=0;" edge="1" source="oALdavLzcrJTUtkCUUX--3" parent="TTJAo-frcvp1wLLPHWIe-1">
          <mxGeometry relative="1" as="geometry">
            <mxPoint x="75" y="190" as="targetPoint" />
          </mxGeometry>
        </mxCell>
        <mxCell id="oALdavLzcrJTUtkCUUX--5" value="Accéder à la zone d&#39;échange" style="rounded=1;whiteSpace=wrap;html=1;arcSize=40;fontColor=#000000;fillColor=#ffffc0;strokeColor=#ff0000;" vertex="1" parent="TTJAo-frcvp1wLLPHWIe-1">
          <mxGeometry x="15" y="190" width="120" height="40" as="geometry" />
        </mxCell>
        <mxCell id="oALdavLzcrJTUtkCUUX--6" value="" style="edgeStyle=orthogonalEdgeStyle;html=1;verticalAlign=bottom;endArrow=open;endSize=8;strokeColor=#ff0000;rounded=0;" edge="1" source="oALdavLzcrJTUtkCUUX--5" parent="TTJAo-frcvp1wLLPHWIe-1">
          <mxGeometry relative="1" as="geometry">
            <mxPoint x="75" y="270" as="targetPoint" />
          </mxGeometry>
        </mxCell>
        <mxCell id="oALdavLzcrJTUtkCUUX--7" value="Saisir le message" style="rounded=1;whiteSpace=wrap;html=1;arcSize=40;fontColor=#000000;fillColor=#ffffc0;strokeColor=#ff0000;" vertex="1" parent="TTJAo-frcvp1wLLPHWIe-1">
          <mxGeometry x="15" y="270" width="120" height="40" as="geometry" />
        </mxCell>
        <mxCell id="oALdavLzcrJTUtkCUUX--8" value="" style="edgeStyle=orthogonalEdgeStyle;html=1;verticalAlign=bottom;endArrow=open;endSize=8;strokeColor=#ff0000;rounded=0;" edge="1" source="oALdavLzcrJTUtkCUUX--7" parent="TTJAo-frcvp1wLLPHWIe-1">
          <mxGeometry relative="1" as="geometry">
            <mxPoint x="360" y="290" as="targetPoint" />
          </mxGeometry>
        </mxCell>
        <mxCell id="oALdavLzcrJTUtkCUUX--9" value="Enregistrer demande" style="rounded=1;whiteSpace=wrap;html=1;arcSize=40;fontColor=#000000;fillColor=#ffffc0;strokeColor=#ff0000;" vertex="1" parent="TTJAo-frcvp1wLLPHWIe-1">
          <mxGeometry x="360" y="270" width="120" height="40" as="geometry" />
        </mxCell>
        <mxCell id="oALdavLzcrJTUtkCUUX--10" value="" style="edgeStyle=orthogonalEdgeStyle;html=1;verticalAlign=bottom;endArrow=open;endSize=8;strokeColor=#ff0000;rounded=0;" edge="1" source="oALdavLzcrJTUtkCUUX--9" parent="TTJAo-frcvp1wLLPHWIe-1">
          <mxGeometry relative="1" as="geometry">
            <mxPoint x="420" y="370" as="targetPoint" />
          </mxGeometry>
        </mxCell>
        <mxCell id="oALdavLzcrJTUtkCUUX--13" value="Transférer la demande" style="rounded=1;whiteSpace=wrap;html=1;arcSize=40;fontColor=#000000;fillColor=#ffffc0;strokeColor=#ff0000;" vertex="1" parent="TTJAo-frcvp1wLLPHWIe-1">
          <mxGeometry x="360" y="370" width="120" height="40" as="geometry" />
        </mxCell>
        <mxCell id="oALdavLzcrJTUtkCUUX--14" value="" style="edgeStyle=orthogonalEdgeStyle;html=1;verticalAlign=bottom;endArrow=open;endSize=8;strokeColor=#ff0000;rounded=0;" edge="1" source="oALdavLzcrJTUtkCUUX--13" parent="TTJAo-frcvp1wLLPHWIe-1">
          <mxGeometry relative="1" as="geometry">
            <mxPoint x="420" y="470" as="targetPoint" />
          </mxGeometry>
        </mxCell>
        <mxCell id="oALdavLzcrJTUtkCUUX--17" value="Afficher un message de confirmation" style="rounded=1;whiteSpace=wrap;html=1;arcSize=40;fontColor=#000000;fillColor=#ffffc0;strokeColor=#ff0000;" vertex="1" parent="TTJAo-frcvp1wLLPHWIe-1">
          <mxGeometry x="360" y="470" width="120" height="40" as="geometry" />
        </mxCell>
        <mxCell id="oALdavLzcrJTUtkCUUX--18" value="" style="edgeStyle=orthogonalEdgeStyle;html=1;verticalAlign=bottom;endArrow=open;endSize=8;strokeColor=#ff0000;rounded=0;" edge="1" source="oALdavLzcrJTUtkCUUX--17" parent="TTJAo-frcvp1wLLPHWIe-1">
          <mxGeometry relative="1" as="geometry">
            <mxPoint x="420" y="540" as="targetPoint" />
          </mxGeometry>
        </mxCell>
        <mxCell id="oALdavLzcrJTUtkCUUX--21" value="" style="ellipse;html=1;shape=endState;fillColor=#000000;strokeColor=#ff0000;" vertex="1" parent="TTJAo-frcvp1wLLPHWIe-1">
          <mxGeometry x="405" y="540" width="30" height="30" as="geometry" />
        </mxCell>
        <mxCell id="oALdavLzcrJTUtkCUUX--22" value="" style="endArrow=none;dashed=1;html=1;dashPattern=1 3;strokeWidth=2;rounded=0;" edge="1" parent="TTJAo-frcvp1wLLPHWIe-1">
          <mxGeometry width="50" height="50" relative="1" as="geometry">
            <mxPoint x="480" y="490" as="sourcePoint" />
            <mxPoint x="580" y="490" as="targetPoint" />
          </mxGeometry>
        </mxCell>
        <mxCell id="oALdavLzcrJTUtkCUUX--23" value="créer" style="edgeLabel;html=1;align=center;verticalAlign=middle;resizable=0;points=[];" vertex="1" connectable="0" parent="oALdavLzcrJTUtkCUUX--22">
          <mxGeometry x="0.096" y="-3" relative="1" as="geometry">
            <mxPoint as="offset" />
          </mxGeometry>
        </mxCell>
        <mxCell id="oALdavLzcrJTUtkCUUX--24" value="Demande" style="rounded=0;whiteSpace=wrap;html=1;" vertex="1" parent="TTJAo-frcvp1wLLPHWIe-1">
          <mxGeometry x="580" y="470" width="120" height="40" as="geometry" />
        </mxCell>
        <mxCell id="oALdavLzcrJTUtkCUUX--25" value="" style="endArrow=none;html=1;rounded=0;" edge="1" parent="TTJAo-frcvp1wLLPHWIe-1">
          <mxGeometry width="50" height="50" relative="1" as="geometry">
            <mxPoint x="280" y="581.5999755859375" as="sourcePoint" />
            <mxPoint x="280" as="targetPoint" />
          </mxGeometry>
        </mxCell>
        <mxCell id="oALdavLzcrJTUtkCUUX--27" value="" style="endArrow=none;html=1;rounded=0;" edge="1" parent="TTJAo-frcvp1wLLPHWIe-1">
          <mxGeometry width="50" height="50" relative="1" as="geometry">
            <mxPoint x="500" y="581.5999755859375" as="sourcePoint" />
            <mxPoint x="500" as="targetPoint" />
          </mxGeometry>
        </mxCell>
        <mxCell id="pC61bepaY1jMizvJqfz2-1" value="&lt;b&gt;&lt;u&gt;Envoyer demande à l&#39;administrateur&lt;/u&gt;&lt;/b&gt;" style="text;html=1;align=center;verticalAlign=middle;resizable=0;points=[];autosize=1;strokeColor=none;fillColor=none;" vertex="1" parent="1">
          <mxGeometry x="550" y="368" width="230" height="30" as="geometry" />
        </mxCell>
      </root>
    </mxGraphModel>
  </diagram>
  <diagram id="mnQCFuZ0mpX8F1KUItjK" name="Suivre commande par client">
    <mxGraphModel dx="1276" dy="606" grid="1" gridSize="10" guides="1" tooltips="1" connect="1" arrows="1" fold="1" page="1" pageScale="1" pageWidth="827" pageHeight="1169" math="0" shadow="0">
      <root>
        <mxCell id="0" />
        <mxCell id="1" parent="0" />
        <mxCell id="dBGsruDSIpZV1_2WSHpP-1" value="Administrateur&amp;nbsp; &amp;nbsp; &amp;nbsp; &amp;nbsp; &amp;nbsp; &amp;nbsp; &amp;nbsp; &amp;nbsp; &amp;nbsp; &amp;nbsp; &amp;nbsp; &amp;nbsp; &amp;nbsp; &amp;nbsp; &amp;nbsp; &amp;nbsp; &amp;nbsp; &amp;nbsp; &amp;nbsp; &amp;nbsp; &amp;nbsp; &amp;nbsp; &amp;nbsp; &amp;nbsp; &amp;nbsp; &amp;nbsp; &amp;nbsp; &amp;nbsp; &amp;nbsp;système" style="swimlane;whiteSpace=wrap;html=1;" vertex="1" parent="1">
          <mxGeometry x="120" y="110" width="570" height="580" as="geometry" />
        </mxCell>
        <mxCell id="gRoJMq2GCCyT6bdb9H8l-1" value="" style="endArrow=none;html=1;rounded=0;" edge="1" parent="dBGsruDSIpZV1_2WSHpP-1">
          <mxGeometry width="50" height="50" relative="1" as="geometry">
            <mxPoint x="280" y="580" as="sourcePoint" />
            <mxPoint x="280" as="targetPoint" />
          </mxGeometry>
        </mxCell>
        <mxCell id="PNIxiK7D9R6MTIGkVzU1-1" value="" style="ellipse;html=1;shape=startState;fillColor=#000000;strokeColor=#ff0000;" vertex="1" parent="dBGsruDSIpZV1_2WSHpP-1">
          <mxGeometry x="60" y="40" width="30" height="30" as="geometry" />
        </mxCell>
        <mxCell id="PNIxiK7D9R6MTIGkVzU1-2" value="" style="edgeStyle=orthogonalEdgeStyle;html=1;verticalAlign=bottom;endArrow=open;endSize=8;strokeColor=#ff0000;rounded=0;" edge="1" source="PNIxiK7D9R6MTIGkVzU1-1" parent="dBGsruDSIpZV1_2WSHpP-1">
          <mxGeometry relative="1" as="geometry">
            <mxPoint x="75" y="120" as="targetPoint" />
          </mxGeometry>
        </mxCell>
        <mxCell id="PNIxiK7D9R6MTIGkVzU1-3" value="Se connecter" style="rounded=1;whiteSpace=wrap;html=1;arcSize=40;fontColor=#000000;fillColor=#ffffc0;strokeColor=#ff0000;" vertex="1" parent="dBGsruDSIpZV1_2WSHpP-1">
          <mxGeometry x="15" y="120" width="120" height="40" as="geometry" />
        </mxCell>
        <mxCell id="PNIxiK7D9R6MTIGkVzU1-4" value="" style="edgeStyle=orthogonalEdgeStyle;html=1;verticalAlign=bottom;endArrow=open;endSize=8;strokeColor=#ff0000;rounded=0;" edge="1" source="PNIxiK7D9R6MTIGkVzU1-3" parent="dBGsruDSIpZV1_2WSHpP-1">
          <mxGeometry relative="1" as="geometry">
            <mxPoint x="75" y="200" as="targetPoint" />
          </mxGeometry>
        </mxCell>
        <mxCell id="PNIxiK7D9R6MTIGkVzU1-5" value="Consulter liste des commandes" style="rounded=1;whiteSpace=wrap;html=1;arcSize=40;fontColor=#000000;fillColor=#ffffc0;strokeColor=#ff0000;" vertex="1" parent="dBGsruDSIpZV1_2WSHpP-1">
          <mxGeometry x="15" y="200" width="120" height="40" as="geometry" />
        </mxCell>
        <mxCell id="PNIxiK7D9R6MTIGkVzU1-6" value="" style="edgeStyle=orthogonalEdgeStyle;html=1;verticalAlign=bottom;endArrow=open;endSize=8;strokeColor=#ff0000;rounded=0;" edge="1" source="PNIxiK7D9R6MTIGkVzU1-5" parent="dBGsruDSIpZV1_2WSHpP-1">
          <mxGeometry relative="1" as="geometry">
            <mxPoint x="75" y="280" as="targetPoint" />
          </mxGeometry>
        </mxCell>
        <mxCell id="PNIxiK7D9R6MTIGkVzU1-7" value="Changer le statut" style="rounded=1;whiteSpace=wrap;html=1;arcSize=40;fontColor=#000000;fillColor=#ffffc0;strokeColor=#ff0000;" vertex="1" parent="dBGsruDSIpZV1_2WSHpP-1">
          <mxGeometry x="15" y="280" width="120" height="40" as="geometry" />
        </mxCell>
        <mxCell id="PNIxiK7D9R6MTIGkVzU1-8" value="" style="edgeStyle=orthogonalEdgeStyle;html=1;verticalAlign=bottom;endArrow=open;endSize=8;strokeColor=#ff0000;rounded=0;" edge="1" source="PNIxiK7D9R6MTIGkVzU1-7" parent="dBGsruDSIpZV1_2WSHpP-1">
          <mxGeometry relative="1" as="geometry">
            <mxPoint x="330" y="300" as="targetPoint" />
          </mxGeometry>
        </mxCell>
        <mxCell id="PNIxiK7D9R6MTIGkVzU1-9" value="Enregistrer la mise à&lt;div&gt;jour&lt;/div&gt;" style="rounded=1;whiteSpace=wrap;html=1;arcSize=40;fontColor=#000000;fillColor=#ffffc0;strokeColor=#ff0000;" vertex="1" parent="dBGsruDSIpZV1_2WSHpP-1">
          <mxGeometry x="330" y="280" width="120" height="40" as="geometry" />
        </mxCell>
        <mxCell id="PNIxiK7D9R6MTIGkVzU1-10" value="" style="edgeStyle=orthogonalEdgeStyle;html=1;verticalAlign=bottom;endArrow=open;endSize=8;strokeColor=#ff0000;rounded=0;" edge="1" source="PNIxiK7D9R6MTIGkVzU1-9" parent="dBGsruDSIpZV1_2WSHpP-1">
          <mxGeometry relative="1" as="geometry">
            <mxPoint x="390" y="380" as="targetPoint" />
          </mxGeometry>
        </mxCell>
        <mxCell id="PNIxiK7D9R6MTIGkVzU1-11" value="Notifier le client" style="rounded=1;whiteSpace=wrap;html=1;arcSize=40;fontColor=#000000;fillColor=#ffffc0;strokeColor=#ff0000;" vertex="1" parent="dBGsruDSIpZV1_2WSHpP-1">
          <mxGeometry x="330" y="380" width="120" height="40" as="geometry" />
        </mxCell>
        <mxCell id="PNIxiK7D9R6MTIGkVzU1-12" value="" style="edgeStyle=orthogonalEdgeStyle;html=1;verticalAlign=bottom;endArrow=open;endSize=8;strokeColor=#ff0000;rounded=0;entryX=0.5;entryY=0;entryDx=0;entryDy=0;" edge="1" source="PNIxiK7D9R6MTIGkVzU1-11" parent="dBGsruDSIpZV1_2WSHpP-1" target="PNIxiK7D9R6MTIGkVzU1-13">
          <mxGeometry relative="1" as="geometry">
            <mxPoint x="390" y="480" as="targetPoint" />
          </mxGeometry>
        </mxCell>
        <mxCell id="PNIxiK7D9R6MTIGkVzU1-13" value="" style="ellipse;html=1;shape=endState;fillColor=#000000;strokeColor=#ff0000;" vertex="1" parent="dBGsruDSIpZV1_2WSHpP-1">
          <mxGeometry x="375" y="490" width="30" height="30" as="geometry" />
        </mxCell>
        <mxCell id="QWQ1H4SwphShJ6bB9gBq-1" value="&lt;b&gt;&lt;u&gt;Suivre commande&lt;/u&gt;&lt;/b&gt;" style="text;html=1;align=center;verticalAlign=middle;resizable=0;points=[];autosize=1;strokeColor=none;fillColor=none;" vertex="1" parent="1">
          <mxGeometry x="325" y="48" width="130" height="30" as="geometry" />
        </mxCell>
      </root>
    </mxGraphModel>
  </diagram>
  <diagram id="MTIeIiT9qETr7krXRbGu" name="Organiser les produits par catégorie ">
    <mxGraphModel dx="1276" dy="606" grid="1" gridSize="10" guides="1" tooltips="1" connect="1" arrows="1" fold="1" page="1" pageScale="1" pageWidth="827" pageHeight="1169" math="0" shadow="0">
      <root>
        <mxCell id="0" />
        <mxCell id="1" parent="0" />
        <mxCell id="ZYu5QGzG4-QTcsczqn5f-1" value="Administrateur                                           système" style="swimlane;" vertex="1" parent="1">
          <mxGeometry x="150" y="90" width="480" height="610" as="geometry" />
        </mxCell>
        <mxCell id="ZYu5QGzG4-QTcsczqn5f-4" value="" style="endArrow=none;html=1;rounded=0;exitX=0.5;exitY=1;exitDx=0;exitDy=0;" edge="1" parent="ZYu5QGzG4-QTcsczqn5f-1" source="ZYu5QGzG4-QTcsczqn5f-1">
          <mxGeometry width="50" height="50" relative="1" as="geometry">
            <mxPoint x="190" y="50" as="sourcePoint" />
            <mxPoint x="240" as="targetPoint" />
          </mxGeometry>
        </mxCell>
        <mxCell id="NA1supZT6-9mWdxG5GOl-3" value="" style="ellipse;html=1;shape=startState;fillColor=#000000;strokeColor=#ff0000;" vertex="1" parent="ZYu5QGzG4-QTcsczqn5f-1">
          <mxGeometry x="40" y="30" width="30" height="30" as="geometry" />
        </mxCell>
        <mxCell id="NA1supZT6-9mWdxG5GOl-4" value="" style="edgeStyle=orthogonalEdgeStyle;html=1;verticalAlign=bottom;endArrow=open;endSize=8;strokeColor=#ff0000;rounded=0;" edge="1" source="NA1supZT6-9mWdxG5GOl-3" parent="ZYu5QGzG4-QTcsczqn5f-1">
          <mxGeometry relative="1" as="geometry">
            <mxPoint x="55" y="100" as="targetPoint" />
          </mxGeometry>
        </mxCell>
        <mxCell id="NA1supZT6-9mWdxG5GOl-7" value="Sélectionner une catégorie" style="rounded=1;whiteSpace=wrap;html=1;arcSize=40;fontColor=#000000;fillColor=#ffffc0;strokeColor=#ff0000;" vertex="1" parent="ZYu5QGzG4-QTcsczqn5f-1">
          <mxGeometry y="200" width="120" height="40" as="geometry" />
        </mxCell>
        <mxCell id="NA1supZT6-9mWdxG5GOl-8" value="" style="edgeStyle=orthogonalEdgeStyle;html=1;verticalAlign=bottom;endArrow=open;endSize=8;strokeColor=#ff0000;rounded=0;" edge="1" source="NA1supZT6-9mWdxG5GOl-7" parent="ZYu5QGzG4-QTcsczqn5f-1">
          <mxGeometry relative="1" as="geometry">
            <mxPoint x="60" y="300" as="targetPoint" />
          </mxGeometry>
        </mxCell>
        <mxCell id="NA1supZT6-9mWdxG5GOl-9" value="Associer les produits" style="rounded=1;whiteSpace=wrap;html=1;arcSize=40;fontColor=#000000;fillColor=#ffffc0;strokeColor=#ff0000;" vertex="1" parent="ZYu5QGzG4-QTcsczqn5f-1">
          <mxGeometry y="300" width="120" height="40" as="geometry" />
        </mxCell>
        <mxCell id="NA1supZT6-9mWdxG5GOl-10" value="" style="edgeStyle=orthogonalEdgeStyle;html=1;verticalAlign=bottom;endArrow=open;endSize=8;strokeColor=#ff0000;rounded=0;" edge="1" source="NA1supZT6-9mWdxG5GOl-9" parent="ZYu5QGzG4-QTcsczqn5f-1">
          <mxGeometry relative="1" as="geometry">
            <mxPoint x="280" y="320" as="targetPoint" />
          </mxGeometry>
        </mxCell>
        <mxCell id="NA1supZT6-9mWdxG5GOl-11" value="Mettre à jour la relation produit-catégorie" style="rounded=1;whiteSpace=wrap;html=1;arcSize=40;fontColor=#000000;fillColor=#ffffc0;strokeColor=#ff0000;" vertex="1" parent="ZYu5QGzG4-QTcsczqn5f-1">
          <mxGeometry x="280" y="300" width="120" height="40" as="geometry" />
        </mxCell>
        <mxCell id="NA1supZT6-9mWdxG5GOl-12" value="" style="edgeStyle=orthogonalEdgeStyle;html=1;verticalAlign=bottom;endArrow=open;endSize=8;strokeColor=#ff0000;rounded=0;" edge="1" source="NA1supZT6-9mWdxG5GOl-11" parent="ZYu5QGzG4-QTcsczqn5f-1">
          <mxGeometry relative="1" as="geometry">
            <mxPoint x="340" y="400" as="targetPoint" />
          </mxGeometry>
        </mxCell>
        <mxCell id="NA1supZT6-9mWdxG5GOl-13" value="Afficher la nouvelle organisation" style="rounded=1;whiteSpace=wrap;html=1;arcSize=40;fontColor=#000000;fillColor=#ffffc0;strokeColor=#ff0000;" vertex="1" parent="ZYu5QGzG4-QTcsczqn5f-1">
          <mxGeometry x="280" y="400" width="120" height="40" as="geometry" />
        </mxCell>
        <mxCell id="NA1supZT6-9mWdxG5GOl-14" value="" style="edgeStyle=orthogonalEdgeStyle;html=1;verticalAlign=bottom;endArrow=open;endSize=8;strokeColor=#ff0000;rounded=0;" edge="1" source="NA1supZT6-9mWdxG5GOl-13" parent="ZYu5QGzG4-QTcsczqn5f-1">
          <mxGeometry relative="1" as="geometry">
            <mxPoint x="340" y="500" as="targetPoint" />
          </mxGeometry>
        </mxCell>
        <mxCell id="NA1supZT6-9mWdxG5GOl-15" value="" style="ellipse;html=1;shape=endState;fillColor=#000000;strokeColor=#ff0000;" vertex="1" parent="ZYu5QGzG4-QTcsczqn5f-1">
          <mxGeometry x="325" y="500" width="30" height="30" as="geometry" />
        </mxCell>
        <mxCell id="ZYu5QGzG4-QTcsczqn5f-5" value="&lt;u&gt;&lt;b&gt;Organiser par catégorie&lt;/b&gt;&lt;/u&gt;" style="text;html=1;align=center;verticalAlign=middle;resizable=0;points=[];autosize=1;strokeColor=none;fillColor=none;" vertex="1" parent="1">
          <mxGeometry x="300" y="28" width="160" height="30" as="geometry" />
        </mxCell>
        <mxCell id="NA1supZT6-9mWdxG5GOl-5" value="Se connecter" style="rounded=1;whiteSpace=wrap;html=1;arcSize=40;fontColor=#000000;fillColor=#ffffc0;strokeColor=#ff0000;" vertex="1" parent="1">
          <mxGeometry x="150" y="190" width="120" height="40" as="geometry" />
        </mxCell>
        <mxCell id="NA1supZT6-9mWdxG5GOl-6" value="" style="edgeStyle=orthogonalEdgeStyle;html=1;verticalAlign=bottom;endArrow=open;endSize=8;strokeColor=#ff0000;rounded=0;" edge="1" source="NA1supZT6-9mWdxG5GOl-5" parent="1">
          <mxGeometry relative="1" as="geometry">
            <mxPoint x="210" y="290" as="targetPoint" />
          </mxGeometry>
        </mxCell>
      </root>
    </mxGraphModel>
  </diagram>
  <diagram id="D6W6OquOHjGT1HriM-Xm" name="Modifier produit par l&#39;administrateur">
    <mxGraphModel dx="1276" dy="606" grid="1" gridSize="10" guides="1" tooltips="1" connect="1" arrows="1" fold="1" page="1" pageScale="1" pageWidth="827" pageHeight="1169" math="0" shadow="0">
      <root>
        <mxCell id="0" />
        <mxCell id="1" parent="0" />
        <mxCell id="FPFFJuAgp_taweLDrAsM-1" value="Administrateur                                                système" style="swimlane;" vertex="1" parent="1">
          <mxGeometry x="140" y="170" width="510" height="560" as="geometry" />
        </mxCell>
        <mxCell id="FPFFJuAgp_taweLDrAsM-2" value="" style="endArrow=none;html=1;rounded=0;" edge="1" parent="FPFFJuAgp_taweLDrAsM-1">
          <mxGeometry width="50" height="50" relative="1" as="geometry">
            <mxPoint x="249.5" y="560" as="sourcePoint" />
            <mxPoint x="249.5" as="targetPoint" />
          </mxGeometry>
        </mxCell>
        <mxCell id="uAy4_is2aBVF_zitq0KE-1" value="" style="ellipse;html=1;shape=startState;fillColor=#000000;strokeColor=#ff0000;" vertex="1" parent="FPFFJuAgp_taweLDrAsM-1">
          <mxGeometry x="60" y="30" width="30" height="30" as="geometry" />
        </mxCell>
        <mxCell id="uAy4_is2aBVF_zitq0KE-2" value="" style="edgeStyle=orthogonalEdgeStyle;html=1;verticalAlign=bottom;endArrow=open;endSize=8;strokeColor=#ff0000;rounded=0;" edge="1" source="uAy4_is2aBVF_zitq0KE-1" parent="FPFFJuAgp_taweLDrAsM-1">
          <mxGeometry relative="1" as="geometry">
            <mxPoint x="75" y="100" as="targetPoint" />
          </mxGeometry>
        </mxCell>
        <mxCell id="Y3QoI7w9fliQ04mvf6wI-1" value="Se connecter" style="rounded=1;whiteSpace=wrap;html=1;arcSize=40;fontColor=#000000;fillColor=#ffffc0;strokeColor=#ff0000;" vertex="1" parent="FPFFJuAgp_taweLDrAsM-1">
          <mxGeometry x="15" y="100" width="120" height="40" as="geometry" />
        </mxCell>
        <mxCell id="Y3QoI7w9fliQ04mvf6wI-2" value="" style="edgeStyle=orthogonalEdgeStyle;html=1;verticalAlign=bottom;endArrow=open;endSize=8;strokeColor=#ff0000;rounded=0;" edge="1" source="Y3QoI7w9fliQ04mvf6wI-1" parent="FPFFJuAgp_taweLDrAsM-1">
          <mxGeometry relative="1" as="geometry">
            <mxPoint x="75" y="190" as="targetPoint" />
          </mxGeometry>
        </mxCell>
        <mxCell id="Y3QoI7w9fliQ04mvf6wI-3" value="Sélectionner le produit" style="rounded=1;whiteSpace=wrap;html=1;arcSize=40;fontColor=#000000;fillColor=#ffffc0;strokeColor=#ff0000;" vertex="1" parent="FPFFJuAgp_taweLDrAsM-1">
          <mxGeometry x="15" y="190" width="120" height="40" as="geometry" />
        </mxCell>
        <mxCell id="Y3QoI7w9fliQ04mvf6wI-4" value="" style="edgeStyle=orthogonalEdgeStyle;html=1;verticalAlign=bottom;endArrow=open;endSize=8;strokeColor=#ff0000;rounded=0;" edge="1" source="Y3QoI7w9fliQ04mvf6wI-3" parent="FPFFJuAgp_taweLDrAsM-1">
          <mxGeometry relative="1" as="geometry">
            <mxPoint x="75" y="290" as="targetPoint" />
          </mxGeometry>
        </mxCell>
        <mxCell id="Y3QoI7w9fliQ04mvf6wI-5" value="Mettre à jour" style="rounded=1;whiteSpace=wrap;html=1;arcSize=40;fontColor=#000000;fillColor=#ffffc0;strokeColor=#ff0000;" vertex="1" parent="FPFFJuAgp_taweLDrAsM-1">
          <mxGeometry x="15" y="290" width="120" height="40" as="geometry" />
        </mxCell>
        <mxCell id="Y3QoI7w9fliQ04mvf6wI-6" value="" style="edgeStyle=orthogonalEdgeStyle;html=1;verticalAlign=bottom;endArrow=open;endSize=8;strokeColor=#ff0000;rounded=0;" edge="1" source="Y3QoI7w9fliQ04mvf6wI-5" parent="FPFFJuAgp_taweLDrAsM-1">
          <mxGeometry relative="1" as="geometry">
            <mxPoint x="310" y="310" as="targetPoint" />
          </mxGeometry>
        </mxCell>
        <mxCell id="Y3QoI7w9fliQ04mvf6wI-7" value="Enregistrer les modifications" style="rounded=1;whiteSpace=wrap;html=1;arcSize=40;fontColor=#000000;fillColor=#ffffc0;strokeColor=#ff0000;" vertex="1" parent="FPFFJuAgp_taweLDrAsM-1">
          <mxGeometry x="310" y="290" width="120" height="40" as="geometry" />
        </mxCell>
        <mxCell id="Y3QoI7w9fliQ04mvf6wI-8" value="" style="edgeStyle=orthogonalEdgeStyle;html=1;verticalAlign=bottom;endArrow=open;endSize=8;strokeColor=#ff0000;rounded=0;" edge="1" source="Y3QoI7w9fliQ04mvf6wI-7" parent="FPFFJuAgp_taweLDrAsM-1">
          <mxGeometry relative="1" as="geometry">
            <mxPoint x="370" y="390" as="targetPoint" />
          </mxGeometry>
        </mxCell>
        <mxCell id="Y3QoI7w9fliQ04mvf6wI-9" value="Confirmer" style="rounded=1;whiteSpace=wrap;html=1;arcSize=40;fontColor=#000000;fillColor=#ffffc0;strokeColor=#ff0000;" vertex="1" parent="FPFFJuAgp_taweLDrAsM-1">
          <mxGeometry x="310" y="390" width="120" height="40" as="geometry" />
        </mxCell>
        <mxCell id="Y3QoI7w9fliQ04mvf6wI-10" value="" style="edgeStyle=orthogonalEdgeStyle;html=1;verticalAlign=bottom;endArrow=open;endSize=8;strokeColor=#ff0000;rounded=0;" edge="1" source="Y3QoI7w9fliQ04mvf6wI-9" parent="FPFFJuAgp_taweLDrAsM-1">
          <mxGeometry relative="1" as="geometry">
            <mxPoint x="370" y="490" as="targetPoint" />
          </mxGeometry>
        </mxCell>
        <mxCell id="Y3QoI7w9fliQ04mvf6wI-11" value="" style="ellipse;html=1;shape=endState;fillColor=#000000;strokeColor=#ff0000;" vertex="1" parent="FPFFJuAgp_taweLDrAsM-1">
          <mxGeometry x="355" y="490" width="30" height="30" as="geometry" />
        </mxCell>
        <mxCell id="FPFFJuAgp_taweLDrAsM-3" value="&lt;b&gt;&lt;u&gt;Modifier produit&lt;/u&gt;&lt;/b&gt;" style="text;html=1;align=center;verticalAlign=middle;resizable=0;points=[];autosize=1;strokeColor=none;fillColor=none;" vertex="1" parent="1">
          <mxGeometry x="335" y="98" width="110" height="30" as="geometry" />
        </mxCell>
      </root>
    </mxGraphModel>
  </diagram>
</mxfile>
